<?xml version="1.0" encoding="UTF-8" standalone="no"?>
<!-- Created with Inkscape (http://www.inkscape.org/) -->

<svg
   width="39.137299mm"
   height="11.034937mm"
   viewBox="0 0 39.137299 11.034937"
   version="1.1"
   id="svg1"
   xml:space="preserve"
   xmlns="http://www.w3.org/2000/svg"
   xmlns:svg="http://www.w3.org/2000/svg"><defs
     id="defs1" /><g
     id="layer1"
     transform="translate(-87.808786,-136.98568)"><path
       style="fill:#000000"
       d="m 87.914996,147.6439 c -0.382186,-0.4605 0.263461,-1.85018 1.995109,-4.29423 2.464156,-3.47791 5.876157,-5.74133 9.417243,-6.2471 2.688122,-0.38395 5.005982,0.13988 9.473002,2.14085 4.33178,1.94039 5.61288,2.28326 7.77637,2.08123 2.28334,-0.21322 4.2449,-1.00762 7.07218,-2.86411 3.49302,-2.29364 4.11413,-1.8076 2.31952,1.81511 -2.75826,5.56802 -7.6865,8.37773 -13.28092,7.57177 -1.18668,-0.17096 -3.11619,-0.76678 -4.96464,-1.53305 -5.23147,-2.1687 -5.85866,-2.32383 -8.844389,-2.18764 -3.063096,0.13973 -4.411828,0.57912 -7.877691,2.56641 -1.273325,0.73011 -2.418187,1.32748 -2.544138,1.32748 -0.125951,0 -0.369692,-0.16952 -0.541646,-0.37672 z m 4.496985,-2.39213 c 2.479224,-1.27314 4.541539,-1.80637 6.995657,-1.8088 2.548322,-0.003 3.560102,0.25925 7.622972,1.97231 5.19361,2.18982 7.74312,2.47122 11.42703,1.26122 1.96927,-0.64681 3.74425,-1.92724 5.19101,-3.74467 1.24415,-1.56291 2.97953,-5.04821 2.58401,-5.18967 -0.14148,-0.0506 -1.19997,0.52691 -2.35218,1.28336 -2.83389,1.8605 -4.98643,2.69809 -7.33036,2.85235 -2.42168,0.15938 -3.66762,-0.15819 -7.69673,-1.96181 -6.3165,-2.82755 -8.903522,-3.04587 -13.001827,-1.09723 -2.102866,0.99986 -5.014601,3.84707 -6.431946,6.28941 -1.309895,2.25718 -1.284189,2.59217 0.132291,1.724 0.618464,-0.37906 1.905497,-1.09027 2.860073,-1.58047 z"
       id="path2" /></g></svg>
